<svg xmlns="http://www.w3.org/2000/svg" version="1.1" xmlns:xlink="http://www.w3.org/1999/xlink" xmlns:svgjs="http://svgjs.dev/svgjs" width="1000" height="1000"><g clip-path="url(#SvgjsClipPath1006)"><rect width="1000" height="1000" fill="#ffffff"></rect><g transform="matrix(0.7954545454545454,0,0,0.7954545454545454,150,466.9886363636364)"><svg xmlns="http://www.w3.org/2000/svg" version="1.1" xmlns:xlink="http://www.w3.org/1999/xlink" xmlns:svgjs="http://svgjs.dev/svgjs" width="880" height="83"><svg width="880" height="83" viewBox="0 0 880 83" fill="none" xmlns="http://www.w3.org/2000/svg">
<path d="M16.1499 81.6775L0.462402 21.4691H19.7124L27.8166 60.0316H28.3374L37.0457 21.4691H55.8166L64.7541 59.7608H65.2749L73.1499 21.4691H92.3999L76.6707 81.6775H56.1707L46.7541 46.5941H46.0874L36.6916 81.6775H16.1499Z" fill="black"></path>
<path d="M128.259 82.8233C121.951 82.8233 116.519 81.5733 111.967 79.0733C107.41 76.5733 103.91 73.0056 101.467 68.365C99.019 63.7296 97.8003 58.2087 97.8003 51.8025C97.8003 45.5837 99.019 40.1358 101.467 35.4692C103.925 30.8025 107.389 27.1723 111.863 24.5733C116.332 21.9796 121.602 20.6775 127.675 20.6775C131.951 20.6775 135.868 21.3442 139.425 22.6775C142.977 24.0108 146.05 25.9848 148.634 28.5942C151.227 31.2087 153.243 34.4275 154.675 38.2608C156.118 42.0942 156.842 46.4796 156.842 51.4067V56.1983H104.488V45.0525H138.988C138.957 43.0264 138.472 41.2139 137.529 39.615C136.597 38.0212 135.311 36.7712 133.675 35.865C132.05 34.9639 130.175 34.5108 128.05 34.5108C125.91 34.5108 123.988 34.99 122.279 35.9483C120.582 36.9067 119.238 38.2087 118.238 39.8442C117.248 41.4692 116.738 43.3181 116.696 45.3858V56.6983C116.696 59.1567 117.175 61.3129 118.134 63.1567C119.102 65.0056 120.477 66.4379 122.259 67.4483C124.035 68.464 126.154 68.9692 128.613 68.9692C130.306 68.9692 131.842 68.74 133.217 68.2817C134.602 67.8129 135.79 67.115 136.779 66.1983C137.779 65.2817 138.529 64.1567 139.029 62.8233L156.634 63.3233C155.894 67.2712 154.29 70.6983 151.821 73.615C149.363 76.5317 146.134 78.7973 142.134 80.4067C138.134 82.016 133.509 82.8233 128.259 82.8233Z" fill="black"></path>
<path d="M219.234 39.8442L201.63 40.3233C201.448 39.0629 200.948 37.9431 200.13 36.9692C199.323 35.9848 198.276 35.2139 196.984 34.6567C195.693 34.0889 194.198 33.8025 192.505 33.8025C190.281 33.8025 188.391 34.2504 186.838 35.1358C185.281 36.0264 184.516 37.2296 184.547 38.74C184.516 39.9223 184.99 40.9431 185.963 41.8025C186.948 42.6671 188.713 43.3598 191.255 43.8858L202.859 46.0733C208.859 47.2296 213.328 49.1358 216.276 51.8025C219.219 54.4692 220.703 58.0004 220.734 62.3858C220.703 66.5108 219.484 70.1098 217.068 73.1775C214.651 76.2348 211.344 78.6098 207.151 80.3025C202.969 81.9796 198.193 82.8233 192.818 82.8233C184.219 82.8233 177.443 81.0525 172.484 77.5108C167.536 73.9692 164.713 69.2192 164.005 63.2608L182.943 62.7817C183.359 64.9796 184.443 66.6515 186.193 67.8025C187.943 68.9587 190.177 69.5317 192.901 69.5317C195.344 69.5317 197.338 69.0733 198.88 68.1567C200.422 67.24 201.203 66.0265 201.234 64.5108C201.203 63.1515 200.599 62.0629 199.422 61.24C198.255 60.4067 196.411 59.7608 193.901 59.3025L183.401 57.3025C177.359 56.2087 172.859 54.1723 169.901 51.1983C166.953 48.2296 165.495 44.4431 165.526 39.8442C165.495 35.8181 166.568 32.3754 168.734 29.5108C170.911 26.6514 173.995 24.4639 177.984 22.9483C181.984 21.4379 186.703 20.6775 192.151 20.6775C200.302 20.6775 206.724 22.3858 211.422 25.8025C216.13 29.2087 218.734 33.8858 219.234 39.8442Z" fill="black"></path>
<path d="M264.113 21.4691V35.5733H226.134V21.4691H264.113ZM234.092 7.03162H253.259V62.74C253.259 63.9222 253.447 64.8754 253.822 65.5941C254.197 66.3025 254.749 66.8129 255.488 67.115C256.223 67.4222 257.098 67.5733 258.113 67.5733C258.848 67.5733 259.624 67.5056 260.447 67.365C261.264 67.2139 261.889 67.0837 262.322 66.9691L265.217 80.8233C264.301 81.0733 263.009 81.3962 261.342 81.7816C259.686 82.1827 257.707 82.4327 255.405 82.5316C250.915 82.74 247.072 82.2087 243.863 80.9483C240.665 79.6879 238.223 77.7087 236.53 75.0108C234.848 72.3181 234.035 68.9379 234.092 64.865V7.03162Z" fill="black"></path>
<path d="M326.62 27.615C326.172 25.9795 325.521 24.5264 324.662 23.2608C323.797 21.9847 322.735 20.9014 321.474 20.0108C320.224 19.1254 318.787 18.4483 317.162 17.99C315.547 17.5316 313.771 17.3025 311.828 17.3025C307.938 17.3025 304.578 18.2504 301.745 20.1358C298.912 22.0108 296.724 24.7504 295.183 28.3441C293.641 31.9431 292.87 36.2972 292.87 41.4066C292.87 46.5629 293.61 50.9587 295.099 54.5941C296.584 58.2191 298.735 60.99 301.558 62.9066C304.391 64.8129 307.813 65.7608 311.828 65.7608C315.381 65.7608 318.396 65.1879 320.87 64.0316C323.339 62.865 325.214 61.2139 326.495 59.0733C327.771 56.9222 328.412 54.3962 328.412 51.49L332.016 51.9275H312.495V37.7608H347.12V48.3858C347.12 55.5837 345.589 61.74 342.537 66.865C339.495 71.99 335.313 75.9275 329.995 78.6775C324.688 81.417 318.584 82.7816 311.683 82.7816C304.016 82.7816 297.276 81.1254 291.474 77.8025C285.683 74.4847 281.162 69.7504 277.912 63.5941C274.672 57.4275 273.058 50.115 273.058 41.6566C273.058 35.0733 274.037 29.2295 275.995 24.115C277.964 19.0056 280.709 14.6722 284.224 11.1149C287.735 7.56287 291.813 4.86495 296.453 3.03162C301.089 1.19828 306.084 0.281616 311.433 0.281616C316.084 0.281616 320.417 0.948283 324.433 2.28162C328.443 3.61495 332 5.50037 335.099 7.92745C338.193 10.3597 340.709 13.2504 342.641 16.5941C344.584 19.9431 345.787 23.615 346.245 27.615H326.62Z" fill="#0097B2"></path>
<path d="M355.937 17.1566V1.38574H423.791V17.1566H399.437V81.6774H380.312V17.1566H355.937Z" fill="#0097B2"></path>
<path d="M450.668 81.6774H429.813L456.897 1.38574H482.751L509.834 81.6774H488.98L470.126 21.6149H469.501L450.668 81.6774ZM447.897 50.0732H491.48V64.8232H447.897V50.0732Z" fill="#0097B2"></path>
<path d="M537.666 47.3441V81.6774H518.5V1.38574H537.041V32.5107H537.708C539.067 28.8024 541.297 25.9066 544.396 23.8232C547.489 21.7295 551.281 20.6774 555.771 20.6774C560.005 20.6774 563.692 21.6149 566.833 23.4899C569.969 25.3545 572.406 27.9847 574.146 31.3857C575.88 34.7764 576.734 38.7503 576.708 43.3024V81.6774H557.541V47.0524C557.567 43.7191 556.729 41.1149 555.021 39.2399C553.323 37.3545 550.937 36.4066 547.854 36.4066C545.838 36.4066 544.067 36.8441 542.541 37.7191C541.01 38.5941 539.823 39.8441 538.979 41.4691C538.13 43.0837 537.692 45.042 537.666 47.3441Z" fill="black"></path>
<path d="M616.73 82.8233C610.397 82.8233 604.964 81.5265 600.438 78.9275C595.907 76.3181 592.423 72.6775 589.98 68.0108C587.532 63.3442 586.313 57.9275 586.313 51.7608C586.313 45.5681 587.532 40.1358 589.98 35.4692C592.423 30.8025 595.907 27.1723 600.438 24.5733C604.964 21.9796 610.397 20.6775 616.73 20.6775C623.048 20.6775 628.469 21.9796 633.001 24.5733C637.542 27.1723 641.032 30.8025 643.48 35.4692C645.923 40.1358 647.147 45.5681 647.147 51.7608C647.147 57.9275 645.923 63.3442 643.48 68.0108C641.032 72.6775 637.542 76.3181 633.001 78.9275C628.469 81.5265 623.048 82.8233 616.73 82.8233ZM616.855 68.3442C619.147 68.3442 621.089 67.6462 622.688 66.24C624.282 64.8233 625.506 62.865 626.355 60.365C627.199 57.8546 627.626 54.9483 627.626 51.6567C627.626 48.3129 627.199 45.3806 626.355 42.865C625.506 40.3546 624.282 38.3962 622.688 36.99C621.089 35.5733 619.147 34.865 616.855 34.865C614.464 34.865 612.449 35.5733 610.813 36.99C609.188 38.3962 607.949 40.3546 607.105 42.865C606.256 45.3806 605.834 48.3129 605.834 51.6567C605.834 54.9483 606.256 57.8546 607.105 60.365C607.949 62.865 609.188 64.8233 610.813 66.24C612.449 67.6462 614.464 68.3442 616.855 68.3442Z" fill="black"></path>
<path d="M656.988 81.6775V21.4692H675.217V32.5108H675.884C677.134 28.8598 679.243 25.9796 682.217 23.865C685.201 21.74 688.759 20.6775 692.884 20.6775C697.061 20.6775 700.639 21.7556 703.613 23.9067C706.597 26.0473 708.498 28.9171 709.321 32.5108H709.946C711.071 28.9275 713.264 26.0629 716.529 23.9067C719.79 21.7556 723.644 20.6775 728.092 20.6775C733.785 20.6775 738.41 22.5056 741.967 26.1567C745.519 29.7973 747.3 34.7921 747.3 41.1358V81.6775H728.134V45.5317C728.134 42.5317 727.363 40.24 725.821 38.6567C724.279 37.0733 722.279 36.2817 719.821 36.2817C717.181 36.2817 715.113 37.1358 713.613 38.8442C712.113 40.5525 711.363 42.8442 711.363 45.7192V81.6775H692.925V45.3442C692.925 42.5421 692.165 40.3337 690.654 38.7192C689.139 37.0942 687.139 36.2817 684.654 36.2817C682.988 36.2817 681.509 36.6879 680.217 37.49C678.936 38.2817 677.936 39.4067 677.217 40.865C676.509 42.3233 676.154 44.0473 676.154 46.0317V81.6775H656.988Z" fill="black"></path>
<path d="M787.363 82.8233C781.056 82.8233 775.623 81.5733 771.071 79.0733C766.514 76.5733 763.014 73.0056 760.571 68.365C758.123 63.7296 756.905 58.2087 756.905 51.8025C756.905 45.5837 758.123 40.1358 760.571 35.4692C763.03 30.8025 766.493 27.1723 770.967 24.5733C775.436 21.9796 780.707 20.6775 786.78 20.6775C791.056 20.6775 794.972 21.3442 798.53 22.6775C802.082 24.0108 805.155 25.9848 807.738 28.5942C810.332 31.2087 812.347 34.4275 813.78 38.2608C815.222 42.0942 815.946 46.4796 815.946 51.4067V56.1983H763.592V45.0525H798.092C798.061 43.0264 797.576 41.2139 796.634 39.615C795.701 38.0212 794.415 36.7712 792.78 35.865C791.155 34.9639 789.28 34.5108 787.155 34.5108C785.014 34.5108 783.092 34.99 781.384 35.9483C779.686 36.9067 778.342 38.2087 777.342 39.8442C776.352 41.4692 775.842 43.3181 775.8 45.3858V56.6983C775.8 59.1567 776.28 61.3129 777.238 63.1567C778.207 65.0056 779.582 66.4379 781.363 67.4483C783.139 68.464 785.259 68.9692 787.717 68.9692C789.41 68.9692 790.946 68.74 792.321 68.2817C793.707 67.8129 794.894 67.115 795.884 66.1983C796.884 65.2817 797.634 64.1567 798.134 62.8233L815.738 63.3233C814.998 67.2712 813.394 70.6983 810.925 73.615C808.467 76.5317 805.238 78.7973 801.238 80.4067C797.238 82.016 792.613 82.8233 787.363 82.8233Z" fill="black"></path>
<path d="M878.339 39.8442L860.734 40.3233C860.552 39.0629 860.052 37.9431 859.234 36.9692C858.427 35.9848 857.38 35.2139 856.089 34.6567C854.797 34.0889 853.302 33.8025 851.609 33.8025C849.385 33.8025 847.495 34.2504 845.943 35.1358C844.385 36.0264 843.62 37.2296 843.651 38.74C843.62 39.9223 844.094 40.9431 845.068 41.8025C846.052 42.6671 847.818 43.3598 850.359 43.8858L861.964 46.0733C867.964 47.2296 872.432 49.1358 875.38 51.8025C878.323 54.4692 879.807 58.0004 879.839 62.3858C879.807 66.5108 878.589 70.1098 876.172 73.1775C873.755 76.2348 870.448 78.6098 866.255 80.3025C862.073 81.9796 857.297 82.8233 851.922 82.8233C843.323 82.8233 836.547 81.0525 831.589 77.5108C826.641 73.9692 823.818 69.2192 823.109 63.2608L842.047 62.7817C842.464 64.9796 843.547 66.6515 845.297 67.8025C847.047 68.9587 849.281 69.5317 852.005 69.5317C854.448 69.5317 856.443 69.0733 857.984 68.1567C859.526 67.24 860.307 66.0265 860.339 64.5108C860.307 63.1515 859.703 62.0629 858.526 61.24C857.359 60.4067 855.516 59.7608 853.005 59.3025L842.505 57.3025C836.464 56.2087 831.964 54.1723 829.005 51.1983C826.057 48.2296 824.599 44.4431 824.63 39.8442C824.599 35.8181 825.672 32.3754 827.839 29.5108C830.016 26.6514 833.099 24.4639 837.089 22.9483C841.089 21.4379 845.807 20.6775 851.255 20.6775C859.406 20.6775 865.828 22.3858 870.526 25.8025C875.234 29.2087 877.839 33.8858 878.339 39.8442Z" fill="black"></path>
</svg></svg></g></g><defs><clipPath id="SvgjsClipPath1006"><rect width="1000" height="1000" x="0" y="0" rx="350" ry="350"></rect></clipPath></defs></svg>