<svg width="21" height="16" viewBox="0 0 21 16" fill="none" xmlns="http://www.w3.org/2000/svg">
<path opacity="0.8" d="M2.49219 15.5C1.97135 15.5 1.52885 15.3175 1.16469 14.9525C0.799687 14.5883 0.617188 14.1458 0.617188 13.625V2.375C0.617188 1.85417 0.799687 1.41167 1.16469 1.0475C1.52885 0.6825 1.97135 0.5 2.49219 0.5H18.7422C19.263 0.5 19.7055 0.6825 20.0697 1.0475C20.4347 1.41167 20.6172 1.85417 20.6172 2.375V13.625C20.6172 14.1458 20.4347 14.5883 20.0697 14.9525C19.7055 15.3175 19.263 15.5 18.7422 15.5H2.49219ZM10.6172 9.25L2.49219 4.58875V13.625H18.7422V4.58875L10.6172 9.25ZM10.6172 7.03625L18.7422 2.375H2.49219L10.6172 7.03625ZM2.49219 4.58875V2.375V13.625V4.58875Z" fill="#1270EC"/>
</svg>
